HIERARCHY
ROOT RootJoint
{
    OFFSET   0.000000   0.000000   0.000000
    CHANNELS 6 Xposition Yposition Zposition Xrotation Yrotation Zrotation
    JOINT pelvis_lowerback
    {
        OFFSET   0.000000   0.093605   0.000000
        CHANNELS 3 Xrotation Yrotation Zrotation
        JOINT lowerback_torso
        {
            OFFSET   0.000000   0.100000   0.000000
            CHANNELS 3 Xrotation Yrotation Zrotation
            JOINT torso_head
            {
                OFFSET   0.000000   0.282350   0.000000
                CHANNELS 3 Xrotation Yrotation Zrotation
                End Site
                {
                    OFFSET   0.000000   0.192650   0.000000
                }
            }
            JOINT rTorso_Clavicle
            {
                OFFSET  -0.001000   0.157500   0.000000
                CHANNELS 3 Xrotation Yrotation Zrotation
                JOINT rShoulder
                {
                    OFFSET  -0.117647   0.000000   0.000000
                    CHANNELS 3 Xrotation Yrotation Zrotation
                    JOINT rElbow
                    {
                        OFFSET  -0.245000   0.000000   0.000000
                        CHANNELS 3 Xrotation Yrotation Zrotation
                        JOINT rWrist
                        {
                            OFFSET  -0.240000   0.000000   0.000000
                            CHANNELS 3 Xrotation Yrotation Zrotation
                            End Site
                            {
                                OFFSET  -0.116353  -0.002500   0.000000
                            }
                        }
                    }
                }
            }
            JOINT lTorso_Clavicle
            {
                OFFSET   0.001000   0.157500   0.000000
                CHANNELS 3 Xrotation Yrotation Zrotation
                JOINT lShoulder
                {
                    OFFSET   0.117647   0.000000   0.000000
                    CHANNELS 3 Xrotation Yrotation Zrotation
                    JOINT lElbow
                    {
                        OFFSET   0.245000   0.000000   0.000000
                        CHANNELS 3 Xrotation Yrotation Zrotation
                        JOINT lWrist
                        {
                            OFFSET   0.240000   0.000000   0.000000
                            CHANNELS 3 Xrotation Yrotation Zrotation
                            End Site
                            {
                                OFFSET   0.116353  -0.002500   0.000000
                            }
                        }
                    }
                }
            }
        }
    }
    JOINT rHip
    {
        OFFSET  -0.100000  -0.051395   0.000000
        CHANNELS 3 Xrotation Yrotation Zrotation
        JOINT rKnee
        {
            OFFSET   0.000000  -0.410000   0.000000
            CHANNELS 3 Xrotation Yrotation Zrotation
            JOINT rAnkle
            {
                OFFSET   0.000000  -0.390000   0.000000
                CHANNELS 3 Xrotation Yrotation Zrotation
                JOINT rToeJoint
                {
                    OFFSET   0.000000  -0.050000   0.130000
                    CHANNELS 3 Xrotation Yrotation Zrotation
                    End Site
                    {
                        OFFSET  -0.010000   0.002000   0.060000
                    }
                }
            }
        }
    }
    JOINT lHip
    {
        OFFSET   0.100000  -0.051395   0.000000
        CHANNELS 3 Xrotation Yrotation Zrotation
        JOINT lKnee
        {
            OFFSET   0.000000  -0.410000   0.000000
            CHANNELS 3 Xrotation Yrotation Zrotation
            JOINT lAnkle
            {
                OFFSET   0.000000  -0.390000   0.000000
                CHANNELS 3 Xrotation Yrotation Zrotation
                JOINT lToeJoint
                {
                    OFFSET   0.000000  -0.050000   0.130000
                    CHANNELS 3 Xrotation Yrotation Zrotation
                    End Site
                    {
                        OFFSET   0.010000   0.002000   0.060000
                    }
                }
            }
        }
    }
}
MOTION
Frames: 17
Frame Time:   0.008333
 -2.376719   0.925631   3.975860   0.000000   0.000000   0.000000   0.000000   0.000000   0.000000   0.000000   0.000000   0.000000   0.000000   0.000000   0.000000   0.000000   0.000000   0.000000   0.000000   0.000000   0.000000   0.000000   0.000000   0.000000   0.000000   0.000000   0.000000   0.000000   0.000000   0.000000   0.000000   0.000000   0.000000   0.000000   0.000000   0.000000   0.000000   0.000000   0.000000   0.000000   0.000000   0.000000   0.000000   0.000000   0.000000   0.000000   0.000000   0.000000   0.000000   0.000000   0.000000   0.000000   0.000000   0.000000   0.000000   0.000000   0.000000   0.000000   0.000000   0.000000   0.000000   0.000000   0.000000
 -2.376455   0.926063   3.970865   1.216962  -0.854782  -0.020329  -0.990070   0.489179   0.061446   1.079190  -0.067480   0.063521  -1.189848   0.368841  -0.205352   0.650029   0.155389   0.951808   0.711469   0.604000   0.947086   0.015815   0.891482  -0.020839   0.204504  -1.095583  -2.717579   0.186978   0.134551  -0.095785   0.796322   1.141316  -2.206646   0.043393  -2.230863   0.045109  -0.267123   0.583249   2.236217  -3.235739  -0.081533  -0.047158   3.664113   0.002215  -0.030006  -1.920765   0.138321   0.632072  -0.081171   0.000366   0.000563  -2.482643   0.363874   0.076289   1.604775  -0.000437  -0.006843  -0.807074   0.124324  -0.345722   0.808614   0.002277  -0.002601
 -2.375911   0.926689   3.963846   2.261210  -1.852490  -0.010154  -1.436279   1.012283   0.141838   2.481554  -0.025631   0.142829  -2.287471   0.714609  -0.407811   1.264796   0.591968   2.511189   1.369192   1.392640   2.324939   0.038916   1.809779  -0.043018   0.445278  -1.823746  -4.914038   0.386164   0.153359  -0.816263   1.627558   2.125878  -4.951936   0.099864  -4.375576   0.093539  -0.473493   0.647286   3.795972  -6.562261  -0.190055  -0.159526   7.501429   0.003126  -0.061627  -3.704245   0.240550   1.226376  -0.172847   0.000618   0.001255  -5.164064   0.695564   0.205843   3.152639  -0.001356  -0.014332  -1.555784   0.243267  -0.666746   1.552424   0.003558  -0.005698
 -2.375131   0.927159   3.955684   3.211965  -2.825879   0.024486  -1.528257   1.538017   0.227587   4.062427   0.068644   0.216939  -3.262351   1.037062  -0.591636   1.812038   1.246484   4.400887   1.954878   2.314023   3.930086   0.063527   2.726041  -0.063229   0.699194  -2.186423  -6.393016   0.566552   0.006413  -1.950745   2.452436   2.886492  -7.913980   0.155739  -6.418913   0.137577  -0.642544   0.423771   4.603559  -9.834170  -0.290082  -0.320789  11.271450   0.002401  -0.085849  -5.371941   0.315043   1.781348  -0.262302   0.000745   0.001794  -8.002908   1.001702   0.395931   4.539831  -0.002533  -0.019254  -2.255843   0.357643  -0.965105   2.229313   0.004091  -0.007913
 -2.374185   0.927236   3.946997   4.118203  -3.698503   0.072059  -1.384485   2.049159   0.311352   5.719198   0.183064   0.283045  -4.135022   1.339221  -0.757329   2.278239   2.061512   6.446347   2.465468   3.329575   5.632010   0.086502   3.631220  -0.080168   0.979680  -2.233266  -7.342943   0.707352  -0.291567  -3.323245   3.248687   3.430467 -10.918692   0.204641  -8.368298   0.174071  -0.775321  -0.038435   4.865855 -13.004230  -0.372792  -0.518284  14.973308   0.000951  -0.101443  -6.933661   0.368093   2.298392  -0.358095   0.000806   0.002215 -10.977151   1.285091   0.648040   5.771661  -0.003682  -0.021268  -2.911193   0.468083  -1.242623   2.842516   0.004146  -0.008968
 -2.373142   0.926750   3.938260   5.007684  -4.433775   0.119766  -1.092785   2.537060   0.394392   7.381133   0.302250   0.347541  -4.920708   1.622732  -0.906979   2.656084   2.977691   8.541483   2.901437   4.397929   7.351262   0.106087   4.515128  -0.093108   1.287033  -2.038156  -7.942467   0.795078  -0.700461  -4.809398   4.004338   3.796801 -13.875093   0.243884 -10.224343   0.201398  -0.877916  -0.688918   4.776830 -16.038341  -0.435403  -0.744365  18.627696  -0.000243  -0.109204  -8.395592   0.404064   2.779389  -0.457755   0.000806   0.002483 -14.061148   1.545575   0.956369   6.867746  -0.004595  -0.020896  -3.524434   0.574583  -1.500920   3.398392   0.003948  -0.008992
 -2.372066   0.925567   3.929809   5.895621  -5.016231   0.155280  -0.719116   2.999669   0.482948   9.000416   0.421493   0.419126  -5.631279   1.888762  -1.041880   2.946925   3.937977  10.627412   3.266787   5.478999   9.044853   0.121436   5.367270  -0.101798   1.611943  -1.681557  -8.311067   0.826706  -1.169859  -6.333289   4.713452   4.032808 -16.732073   0.272705 -11.983336   0.218969  -0.961731  -1.461042   4.466006 -18.911685  -0.477362  -0.993954  22.254402  -0.000426  -0.110512  -9.763281   0.426267   3.226467  -0.558203   0.000751   0.002587 -17.232267   1.782349   1.310433   7.848560  -0.005176  -0.018829  -4.097925   0.676951  -1.741468   3.902870   0.003651  -0.008232
 -2.370421   0.923049   3.920291   6.958535  -5.555073   0.396496  -0.345993   3.313450   0.389134  10.619879   0.636628   0.558636  -6.348153   2.002456  -1.175636   2.947459   5.255436  12.161738   3.155017   6.600229  10.247602   0.113616   5.837001  -0.094672   1.892303  -1.363479  -7.555868   0.649438  -1.644568  -7.622900   5.205658   3.940405 -19.310409   0.295534 -13.927501   0.235813  -1.128567  -1.743101   3.736790 -22.297546  -0.509507  -1.477997  26.203838  -0.000341  -0.115821 -11.220825   0.425831   3.661328  -0.205757   0.000391  -0.000252 -21.406430   2.086435   1.450488  11.224926  -0.005839  -0.020085  -5.204176   0.854785  -1.902233   4.033220   0.003080  -0.006647
 -2.368499   0.919390   3.910935   8.008606  -6.190578   0.718697   0.081767   3.660497   0.277315  12.180762   0.891703   0.634717  -6.992837   2.104252  -1.279792   2.849039   6.628977  13.332681   3.008043   7.738097  11.167878   0.105165   6.303326  -0.088301   2.156908  -1.013610  -7.021457   0.430264  -2.188489  -8.722298   5.625833   3.754199 -21.627886   0.305093 -15.787556   0.245083  -1.278533  -2.193112   3.125870 -25.757548  -0.495143  -2.001061  30.125220  -0.002629  -0.123920 -12.580942   0.414448   4.066967   0.121391   0.000144  -0.002726 -25.552216   2.404165   1.553296  14.864385  -0.005475  -0.024888  -6.219259   1.024055  -2.049310   4.182008   0.002693  -0.005519
 -2.366429   0.914672   3.902038   9.065697  -6.853289   1.090857   0.510116   4.007922   0.151801  13.645160   1.151180   0.660731  -7.580003   2.199938  -1.367680   2.693306   7.962948  14.271199   2.843233   8.837169  11.906592   0.096713   6.756662  -0.082023   2.424822  -0.606160  -6.772503   0.192728  -2.735466  -9.673454   5.993827   3.539425 -23.727072   0.304854 -17.541129   0.246797  -1.414851  -2.727063   2.659356 -29.258310  -0.450142  -2.525402  34.012460  -0.006995  -0.131712 -13.851329   0.394203   4.444877   0.420381  -0.000060  -0.004665 -29.602259   2.711969   1.650850  18.533625  -0.005034  -0.030760  -7.163432   1.183036  -2.184338   4.328486   0.002395  -0.004690
 -2.364322   0.908961   3.893911  10.024158  -7.489620   1.472144   0.976205   4.333921   0.021768  15.043899   1.395075   0.660931  -8.116145   2.289464  -1.445195   2.506986   9.217305  15.063755   2.670707   9.868021  12.529728   0.088444   7.184356  -0.075493   2.686553  -0.196823  -6.713038  -0.049893  -3.256476 -10.514883   6.322262   3.324273 -25.645255   0.297729 -19.183135   0.242149  -1.545870  -3.269614   2.296715 -32.618046  -0.377207  -3.027229  37.854158  -0.012460  -0.136719 -15.039154   0.367163   4.796233   0.689165  -0.000236  -0.005972 -33.398887   2.993521   1.753706  22.162260  -0.004832  -0.035869  -8.044809   1.332550  -2.308541   4.459117   0.002131  -0.004017
 -2.362237   0.902301   3.886634  10.892952  -8.072305   1.848180   1.442744   4.631201  -0.107202  16.373386   1.616378   0.650516  -8.607848   2.373110  -1.515149   2.311456  10.370836  15.768860   2.497972  10.816307  13.083021   0.080499   7.580224  -0.068701   2.935969   0.176923  -6.753228  -0.285365  -3.732081 -11.275545   6.622447   3.125248 -27.412257   0.285818 -20.713978   0.232411  -1.675007  -3.779996   1.997554 -35.821191  -0.280065  -3.501686  41.666166  -0.018195  -0.138482 -16.149201   0.335309   5.122592   0.932307  -0.000383  -0.006743 -36.908061   3.252613   1.855334  25.590130  -0.004652  -0.038879  -8.865338   1.473409  -2.422828   4.580696   0.001906  -0.003447
 -2.360220   0.894724   3.880177  11.682804  -8.582442   2.203572   1.893457   4.896244  -0.224638  17.629833   1.813329   0.642355  -9.063132   2.451291  -1.578845   2.119866  11.419020  16.420192   2.329555  11.678896  13.593722   0.072965   7.942408  -0.061842   3.169570   0.496603  -6.832624  -0.506564  -4.156327 -11.974358   6.901987   2.948680 -29.050044   0.270674 -22.137600   0.219022  -1.803833  -4.238738   1.734446 -38.853212  -0.164577  -3.944307  45.403766  -0.023356  -0.136587 -17.185556   0.299940   5.425517   1.153483  -0.000496  -0.007075 -40.154923   3.491340   1.953302  28.808696  -0.004207  -0.039562  -9.630730   1.606130  -2.528120   4.689743   0.001709  -0.002933
 -2.357831   0.885892   3.873309  12.471545  -9.070726   2.557203   2.588461   5.024100  -0.332762  18.637253   2.103860   0.720401  -9.566588   2.456483  -1.737448   2.049158  12.546798  16.604741   1.985834  12.434069  13.614503   0.066182   8.392241  -0.057662   3.215433   0.744049  -6.180423  -0.611584  -4.593840 -12.484158   7.105276   2.695516 -30.333413   0.252537 -23.633120   0.210277  -1.971592  -4.527466   1.110481 -42.104362  -0.040360  -4.369622  49.312017  -0.029305  -0.136125 -18.449582   0.332858   5.490983   1.390691  -0.000161  -0.007309 -43.520917   3.888010   2.038791  32.434402   0.000266  -0.037011 -11.097928   1.733119  -2.335290   4.652494   0.001356  -0.002337
 -2.355323   0.876024   3.866744  13.157852  -9.529600   2.892399   3.348551   5.124850  -0.401201  19.605749   2.379067   0.810154 -10.023790   2.458849  -1.872223   1.929978  13.617949  16.532134   1.655320  13.146890  13.437944   0.058823   8.816459  -0.053331   3.257961   0.980395  -5.785918  -0.729393  -5.027316 -12.803076   7.271302   2.453424 -31.407124   0.230421 -25.038906   0.199346  -2.127640  -4.850209   0.654159 -45.289358   0.106968  -4.762873  53.185226  -0.035036  -0.133848 -19.634940   0.362267   5.551697   1.577704   0.000016  -0.007108 -46.696115   4.278496   2.096442  36.084205   0.005667  -0.035814 -12.475883   1.847893  -2.152447   4.557027   0.001007  -0.001837
 -2.352824   0.865225   3.860704  13.752647  -9.952314   3.197901   4.107819   5.210595  -0.436016  20.531384   2.636821   0.911823 -10.436187   2.461275  -1.988681   1.795528  14.610618  16.324990   1.344585  13.806178  13.161923   0.051675   9.210276  -0.048770   3.299078   1.181783  -5.642046  -0.843896  -5.431426 -12.989511   7.415339   2.239385 -32.321942   0.206938 -26.349553   0.186354  -2.276346  -5.160140   0.384340 -48.332703   0.265436  -5.112824  56.876370  -0.039770  -0.128757 -20.741731   0.388913   5.608170   1.743215   0.000103  -0.006732 -49.660514   4.651165   2.136698  39.733242   0.011162  -0.035629 -13.762886   1.950329  -1.979934   4.466112   0.000696  -0.001434
 -2.350391   0.853555   3.855255  14.268082 -10.342827   3.473497   4.839194   5.287219  -0.444975  21.405168   2.881427   1.024667 -10.813914   2.464090  -2.092478   1.662073  15.524068  16.053338   1.055756  14.411544  12.841915   0.045108   9.573461  -0.044096   3.336939   1.341613  -5.653906  -0.946230  -5.796823 -13.086118   7.546978   2.057608 -33.115660   0.183710 -27.567376   0.171994  -2.419195  -5.432108   0.253495 -51.215197   0.428377  -5.419669  60.328747  -0.043147  -0.121388 -21.775229   0.413284   5.660760   1.890664   0.000133  -0.006251 -52.418882   5.006848   2.162914  43.384106   0.016354  -0.036296 -14.964556   2.042046  -1.817281   4.382062   0.000432  -0.001108
